# xmcd CD database file
#
# Track frame offsets:
#	150
#	21467
#	48907
#	69642
#	120000
#	137515
#	151472
#	170370
#	214460
#	232587
#	262547
#	291170
#	312187
#
# Disc length: 4440 seconds
#
# Revision: 0
# Processed by: cddbd v1.5.1PL0 Copyright (c) Steve Scherf et al.
# Submitted via: CDex 1.50Beta7
#
DISCID=a711560d
DTITLE=Shirley Scott - Soul Sister
DYEAR=1960
DGENRE=Jazz
TTITLE0=Trav'lin Light
TTITLE1=Solar
TTITLE2=Nice 'n' Easy
TTITLE3=They Call It Stormy Monday
TTITLE4=Baby, It's Cold Outside
TTITLE5=The Kerry Dance
TTITLE6=On Green Dolphin Street
TTITLE7=Blues For Tyrone
TTITLE8=Sonnymoon For Two
TTITLE9=Like Young
TTITLE10=The More I See You
TTITLE11=Get Me To The Church On Time
TTITLE12=Now's The Time
EXTD=YEAR: 1960
EXTT0=
EXTT1=
EXTT2=
EXTT3=
EXTT4=
EXTT5=
EXTT6=
EXTT7=
EXTT8=
EXTT9=
EXTT10=
EXTT11=
EXTT12=
PLAYORDER=
